<mxfile host="Electron" modified="2023-07-09T09:11:50.416Z" agent="Mozilla/5.0 (Windows NT 10.0; Win64; x64) AppleWebKit/537.36 (KHTML, like Gecko) draw.io/21.6.1 Chrome/112.0.5615.204 Electron/24.6.1 Safari/537.36" etag="YGAJsjnq-lRGnuSAqI2Y" version="21.6.1" type="device">
  <diagram name="Page-1" id="ECgdfkiFDRJ8SGU_sj2W">
    <mxGraphModel dx="1950" dy="838" grid="1" gridSize="10" guides="1" tooltips="1" connect="1" arrows="1" fold="1" page="1" pageScale="1" pageWidth="850" pageHeight="1100" math="0" shadow="0">
      <root>
        <mxCell id="0" />
        <mxCell id="1" parent="0" />
        <mxCell id="kYc6Z61Ddn40yY-MoZaM-2" value="Я могу взять промежуточный компонент с затенением и позиционированием&lt;br&gt;&lt;br&gt;Не буду использовать сервисы&lt;br&gt;&lt;br&gt;Окно контента данного диалога будет отдавать событие accepted / refused&lt;br&gt;&lt;br&gt;Вызывающий компонент сам будет закрывать модалку" style="text;html=1;strokeColor=none;fillColor=none;align=left;verticalAlign=top;whiteSpace=wrap;rounded=0;" vertex="1" parent="1">
          <mxGeometry x="-20" y="50" width="550" height="220" as="geometry" />
        </mxCell>
      </root>
    </mxGraphModel>
  </diagram>
</mxfile>
